{
  "accessors": [
    {
      "bufferView": 2,
      "componentType": 5126,
      "count": 268,
      "max": [
        1.8974175453186035,
        2.2908151149749756,
        6.1954421997070312
      ],
      "min": [
        -1.8974175453186035,
        -2.2908151149749756,
        0.060472726821899414
      ],
      "type": "VEC3"
    },
    {
      "bufferView": 2,
      "byteOffset": 3216,
      "componentType": 5126,
      "count": 268,
      "max": [
        1,
        1,
        1
      ],
      "min": [
        -1,
        -1,
        -1
      ],
      "type": "VEC3"
    },
    {
      "bufferView": 1,
      "componentType": 5126,
      "count": 268,
      "max": [
        0.69249200820922852,
        0.77372086048126221
      ],
      "min": [
        0.16431796550750732,
        0.19328594207763672
      ],
      "type": "VEC2"
    },
    {
      "bufferView": 0,
      "componentType": 5125,
      "count": 450,
      "max": [
        267
      ],
      "min": [
        0
      ],
      "type": "SCALAR"
    },
    {
      "bufferView": 2,
      "byteOffset": 6432,
      "componentType": 5126,
      "count": 4,
      "max": [
        1.7187963724136353,
        0.21787095069885254,
        2.102592945098877
      ],
      "min": [
        1.6902569532394409,
        -1.7281621694564819,
        0.85761940479278564
      ],
      "type": "VEC3"
    },
    {
      "bufferView": 2,
      "byteOffset": 6480,
      "componentType": 5126,
      "count": 4,
      "max": [
        0.9997374415397644,
        0,
        -0.022917697206139565
      ],
      "min": [
        0.9997374415397644,
        0,
        -0.022917697206139565
      ],
      "type": "VEC3"
    },
    {
      "bufferView": 1,
      "byteOffset": 2144,
      "componentType": 5126,
      "count": 4,
      "max": [
        0.47963514924049377,
        0.28474441170692444
      ],
      "min": [
        0.47963514924049377,
        0.28474441170692444
      ],
      "type": "VEC2"
    },
    {
      "bufferView": 0,
      "byteOffset": 1800,
      "componentType": 5125,
      "count": 6,
      "max": [
        3
      ],
      "min": [
        0
      ],
      "type": "SCALAR"
    },
    {
      "bufferView": 2,
      "byteOffset": 6528,
      "componentType": 5126,
      "count": 179,
      "max": [
        1.8121167421340942,
        1.7118721008300781,
        2.1830043792724609
      ],
      "min": [
        1.5431677103042603,
        0.66883009672164917,
        0.14873027801513672
      ],
      "type": "VEC3"
    },
    {
      "bufferView": 2,
      "byteOffset": 8676,
      "componentType": 5126,
      "count": 179,
      "max": [
        1,
        1,
        1
      ],
      "min": [
        -2.1961666263337065e-08,
        -1,
        -1
      ],
      "type": "VEC3"
    },
    {
      "bufferView": 1,
      "byteOffset": 2176,
      "componentType": 5126,
      "count": 179,
      "max": [
        0.6640312671661377,
        0.19227957725524902
      ],
      "min": [
        0.61572754383087158,
        0.16108343005180359
      ],
      "type": "VEC2"
    },
    {
      "bufferView": 0,
      "byteOffset": 1824,
      "componentType": 5125,
      "count": 336,
      "max": [
        178
      ],
      "min": [
        0
      ],
      "type": "SCALAR"
    },
    {
      "bufferView": 2,
      "byteOffset": 10824,
      "componentType": 5126,
      "count": 18,
      "max": [
        1.7643381357192993,
        1.6699213981628418,
        2.1398642063140869
      ],
      "min": [
        1.7643381357192993,
        0.7107807993888855,
        0.51454830169677734
      ],
      "type": "VEC3"
    },
    {
      "bufferView": 2,
      "byteOffset": 11040,
      "componentType": 5126,
      "count": 18,
      "max": [
        1,
        0,
        0
      ],
      "min": [
        1,
        0,
        0
      ],
      "type": "VEC3"
    },
    {
      "bufferView": 1,
      "byteOffset": 3608,
      "componentType": 5126,
      "count": 18,
      "max": [
        0.63294285535812378,
        0.22800415754318237
      ],
      "min": [
        0.63294285535812378,
        0.22800415754318237
      ],
      "type": "VEC2"
    },
    {
      "bufferView": 0,
      "byteOffset": 3168,
      "componentType": 5125,
      "count": 24,
      "max": [
        17
      ],
      "min": [
        0
      ],
      "type": "SCALAR"
    },
    {
      "bufferView": 2,
      "byteOffset": 11256,
      "componentType": 5126,
      "count": 144,
      "max": [
        1.8376873731613159,
        1.6499453783035278,
        5.2612113952636719
      ],
      "min": [
        1.7027753591537476,
        -1.6452553272247314,
        4.0455441474914551
      ],
      "type": "VEC3"
    },
    {
      "bufferView": 2,
      "byteOffset": 12984,
      "componentType": 5126,
      "count": 144,
      "max": [
        0.9997374415397644,
        0.99928802251815796,
        0.99994266033172607
      ],
      "min": [
        -0.022925786674022675,
        -0.99928802251815796,
        -0.99994266033172607
      ],
      "type": "VEC3"
    },
    {
      "bufferView": 1,
      "byteOffset": 3752,
      "componentType": 5126,
      "count": 144,
      "max": [
        0.53212505578994751,
        0.33331707119941711
      ],
      "min": [
        0.53212505578994751,
        0.33331707119941711
      ],
      "type": "VEC2"
    },
    {
      "bufferView": 0,
      "byteOffset": 3264,
      "componentType": 5125,
      "count": 216,
      "max": [
        143
      ],
      "min": [
        0
      ],
      "type": "SCALAR"
    },
    {
      "bufferView": 2,
      "byteOffset": 14712,
      "componentType": 5126,
      "count": 12,
      "max": [
        1.786280632019043,
        1.591704249382019,
        5.2024407386779785
      ],
      "min": [
        1.7611339092254639,
        -1.5870141983032227,
        4.1054630279541016
      ],
      "type": "VEC3"
    },
    {
      "bufferView": 2,
      "byteOffset": 14856,
      "componentType": 5126,
      "count": 12,
      "max": [
        0.99973738193511963,
        0,
        -0.022917613387107849
      ],
      "min": [
        0.99973738193511963,
        0,
        -0.022917620837688446
      ],
      "type": "VEC3"
    },
    {
      "bufferView": 1,
      "byteOffset": 4904,
      "componentType": 5126,
      "count": 12,
      "max": [
        0.52105545997619629,
        0.61005687713623047
      ],
      "min": [
        0.52105545997619629,
        0.61005687713623047
      ],
      "type": "VEC2"
    },
    {
      "bufferView": 0,
      "byteOffset": 4128,
      "componentType": 5125,
      "count": 18,
      "max": [
        11
      ],
      "min": [
        0
      ],
      "type": "SCALAR"
    },
    {
      "bufferView": 2,
      "byteOffset": 15000,
      "componentType": 5126,
      "count": 1024,
      "max": [
        1.8058489561080933,
        2.1517333984375,
        5.4795804023742676
      ],
      "min": [
        -1.7963920831680298,
        -2.1747207641601562,
        0.28312814235687256
      ],
      "type": "VEC3"
    },
    {
      "bufferView": 2,
      "byteOffset": 27288,
      "componentType": 5126,
      "count": 1024,
      "max": [
        1,
        1,
        1
      ],
      "min": [
        -1,
        -1,
        -1
      ],
      "type": "VEC3"
    },
    {
      "bufferView": 1,
      "byteOffset": 5000,
      "componentType": 5126,
      "count": 1024,
      "max": [
        0.69335353374481201,
        0.64908993244171143
      ],
      "min": [
        0.69335353374481201,
        0.64908993244171143
      ],
      "type": "VEC2"
    },
    {
      "bufferView": 0,
      "byteOffset": 4200,
      "componentType": 5125,
      "count": 1536,
      "max": [
        1023
      ],
      "min": [
        0
      ],
      "type": "SCALAR"
    },
    {
      "bufferView": 2,
      "byteOffset": 39576,
      "componentType": 5126,
      "count": 242,
      "max": [
        1.9364690780639648,
        0.67500168085098267,
        0.11705710738897324
      ],
      "min": [
        -1.4218454360961914,
        -1.4285995960235596,
        -0.11705722659826279
      ],
      "type": "VEC3"
    },
    {
      "bufferView": 2,
      "byteOffset": 42480,
      "componentType": 5126,
      "count": 242,
      "max": [
        1,
        0.99091917276382446,
        1
      ],
      "min": [
        -1,
        -0.99091917276382446,
        -1
      ],
      "type": "VEC3"
    },
    {
      "bufferView": 1,
      "byteOffset": 13192,
      "componentType": 5126,
      "count": 242,
      "max": [
        0.27458283305168152,
        0.744537353515625
      ],
      "min": [
        0.20313376188278198,
        0.72318899631500244
      ],
      "type": "VEC2"
    },
    {
      "bufferView": 0,
      "byteOffset": 10344,
      "componentType": 5125,
      "count": 420,
      "max": [
        241
      ],
      "min": [
        0
      ],
      "type": "SCALAR"
    },
    {
      "bufferView": 2,
      "byteOffset": 45384,
      "componentType": 5126,
      "count": 129,
      "max": [
        3.3445889949798584,
        2.1605608463287354,
        3.7869417667388916
      ],
      "min": [
        1.7606892585754395,
        -2.1605608463287354,
        2.3649406433105469
      ],
      "type": "VEC3"
    },
    {
      "bufferView": 2,
      "byteOffset": 46932,
      "componentType": 5126,
      "count": 129,
      "max": [
        0.97615456581115723,
        1,
        0.97692382335662842
      ],
      "min": [
        -0.99982345104217529,
        -1,
        -0.99976217746734619
      ],
      "type": "VEC3"
    },
    {
      "bufferView": 1,
      "byteOffset": 15128,
      "componentType": 5126,
      "count": 129,
      "max": [
        0.74971729516983032,
        0.5359424352645874
      ],
      "min": [
        0,
        0
      ],
      "type": "VEC2"
    },
    {
      "bufferView": 0,
      "byteOffset": 12024,
      "componentType": 5125,
      "count": 186,
      "max": [
        128
      ],
      "min": [
        0
      ],
      "type": "SCALAR"
    }
  ],
  "asset": {
    "extras": {
      "author": "Emma-Lie Kamping (https://sketchfab.com/Ellemieke25)",
      "license": "CC-BY-4.0 (http://creativecommons.org/licenses/by/4.0/)",
      "source": "https://sketchfab.com/3d-models/low-poly-cafe-d8445f89454f49e388895fe806beca69",
      "title": "Low-Poly Cafe"
    },
    "generator": "Sketchfab-8.95.0",
    "version": "2.0"
  },
  "bufferViews": [
    {
      "buffer": 0,
      "byteLength": 12768,
      "byteOffset": 0,
      "name": "floatBufferViews",
      "target": 34963
    },
    {
      "buffer": 0,
      "byteLength": 16160,
      "byteOffset": 12768,
      "byteStride": 8,
      "name": "floatBufferViews",
      "target": 34962
    },
    {
      "buffer": 0,
      "byteLength": 48480,
      "byteOffset": 28928,
      "byteStride": 12,
      "name": "floatBufferViews",
      "target": 34962
    }
  ],
  "buffers": [
    {
      "byteLength": 77408,
      "uri": "scene.bin"
    }
  ],
  "images": [
    {
      "uri": "textures/Cafe_baseColor.jpeg"
    }
  ],
  "materials": [
    {
      "doubleSided": true,
      "emissiveFactor": [
        0,
        0,
        0
      ],
      "name": "Cafe",
      "pbrMetallicRoughness": {
        "baseColorFactor": [
          1,
          1,
          1,
          1
        ],
        "baseColorTexture": {
          "index": 0,
          "texCoord": 0
        },
        "metallicFactor": 0,
        "roughnessFactor": 0.84999999999999998
      }
    },
    {
      "doubleSided": true,
      "emissiveFactor": [
        0,
        0,
        0
      ],
      "name": "Glass",
      "pbrMetallicRoughness": {
        "baseColorFactor": [
          1,
          1,
          1,
          1
        ],
        "baseColorTexture": {
          "index": 0,
          "texCoord": 0
        },
        "metallicFactor": 0,
        "roughnessFactor": 0.107
      }
    }
  ],
  "meshes": [
    {
      "name": "Cafe_Cafe_0",
      "primitives": [
        {
          "attributes": {
            "NORMAL": 1,
            "POSITION": 0,
            "TEXCOORD_0": 2
          },
          "indices": 3,
          "material": 0,
          "mode": 4
        }
      ]
    },
    {
      "name": "Cafe_Glass_0",
      "primitives": [
        {
          "attributes": {
            "NORMAL": 5,
            "POSITION": 4,
            "TEXCOORD_0": 6
          },
          "indices": 7,
          "material": 1,
          "mode": 4
        }
      ]
    },
    {
      "name": "Door_Cafe_0",
      "primitives": [
        {
          "attributes": {
            "NORMAL": 9,
            "POSITION": 8,
            "TEXCOORD_0": 10
          },
          "indices": 11,
          "material": 0,
          "mode": 4
        }
      ]
    },
    {
      "name": "Door_Glass_0",
      "primitives": [
        {
          "attributes": {
            "NORMAL": 13,
            "POSITION": 12,
            "TEXCOORD_0": 14
          },
          "indices": 15,
          "material": 1,
          "mode": 4
        }
      ]
    },
    {
      "name": "Windows_Cafe_0",
      "primitives": [
        {
          "attributes": {
            "NORMAL": 17,
            "POSITION": 16,
            "TEXCOORD_0": 18
          },
          "indices": 19,
          "material": 0,
          "mode": 4
        }
      ]
    },
    {
      "name": "Windows_Glass_0",
      "primitives": [
        {
          "attributes": {
            "NORMAL": 21,
            "POSITION": 20,
            "TEXCOORD_0": 22
          },
          "indices": 23,
          "material": 1,
          "mode": 4
        }
      ]
    },
    {
      "name": "Bricks_Cafe_0",
      "primitives": [
        {
          "attributes": {
            "NORMAL": 25,
            "POSITION": 24,
            "TEXCOORD_0": 26
          },
          "indices": 27,
          "material": 0,
          "mode": 4
        }
      ]
    },
    {
      "name": "Sign_Cafe_0",
      "primitives": [
        {
          "attributes": {
            "NORMAL": 29,
            "POSITION": 28,
            "TEXCOORD_0": 30
          },
          "indices": 31,
          "material": 0,
          "mode": 4
        }
      ]
    },
    {
      "name": "Cloth thing_Cafe_0",
      "primitives": [
        {
          "attributes": {
            "NORMAL": 33,
            "POSITION": 32,
            "TEXCOORD_0": 34
          },
          "indices": 35,
          "material": 0,
          "mode": 4
        }
      ]
    }
  ],
  "nodes": [
    {
      "children": [
        1
      ],
      "name": "RootNode (gltf orientation matrix)",
      "rotation": [
        -0.70710678118654746,
        -0,
        -0,
        0.70710678118654757
      ]
    },
    {
      "children": [
        2
      ],
      "matrix": [
        -2.2204460492503131e-16,
        -1,
        0,
        0,
        1,
        -2.2204460492503131e-16,
        0,
        0,
        0,
        0,
        1,
        0,
        26.317131042480469,
        118.40303039550781,
        -3.026620288437698e-05,
        1
      ],
      "name": "RootNode (model correction matrix)"
    },
    {
      "children": [
        3
      ],
      "matrix": [
        1,
        0,
        0,
        0,
        0,
        0,
        1,
        0,
        0,
        -1,
        0,
        0,
        0,
        0,
        0,
        1
      ],
      "name": "7e3b41593b064640a4e6079ea84daec4.fbx"
    },
    {
      "children": [
        4,
        7,
        10,
        13,
        15,
        17
      ],
      "name": "RootNode"
    },
    {
      "children": [
        5,
        6
      ],
      "matrix": [
        100,
        0,
        0,
        0,
        0,
        -1.6292067939183141e-05,
        -99.999999999998678,
        0,
        0,
        99.999999999998678,
        -1.6292067939183141e-05,
        0,
        0,
        0,
        0,
        1
      ],
      "name": "Cafe"
    },
    {
      "mesh": 0,
      "name": "Cafe_Cafe_0"
    },
    {
      "mesh": 1,
      "name": "Cafe_Glass_0"
    },
    {
      "children": [
        8,
        9
      ],
      "matrix": [
        100,
        0,
        0,
        0,
        0,
        -1.6292067939183141e-05,
        -99.999999999998678,
        0,
        0,
        99.999999999998678,
        -1.6292067939183141e-05,
        0,
        0,
        0,
        0,
        1
      ],
      "name": "Door"
    },
    {
      "mesh": 2,
      "name": "Door_Cafe_0"
    },
    {
      "mesh": 3,
      "name": "Door_Glass_0"
    },
    {
      "children": [
        11,
        12
      ],
      "matrix": [
        100,
        0,
        0,
        0,
        0,
        -1.6292067939183141e-05,
        -99.999999999998678,
        0,
        0,
        99.999999999998678,
        -1.6292067939183141e-05,
        0,
        0,
        0,
        0,
        1
      ],
      "name": "Windows"
    },
    {
      "mesh": 4,
      "name": "Windows_Cafe_0"
    },
    {
      "mesh": 5,
      "name": "Windows_Glass_0"
    },
    {
      "children": [
        14
      ],
      "matrix": [
        100,
        0,
        0,
        0,
        0,
        -1.6292067939183141e-05,
        -99.999999999998678,
        0,
        0,
        99.999999999998678,
        -1.6292067939183141e-05,
        0,
        0,
        0,
        0,
        1
      ],
      "name": "Bricks"
    },
    {
      "mesh": 6,
      "name": "Bricks_Cafe_0"
    },
    {
      "children": [
        16
      ],
      "matrix": [
        4.2799668656327286e-06,
        56.689879929839115,
        -4.274906765027203,
        0,
        -4.6148650242481237e-06,
        -4.2749067650268557,
        -56.689879929839115,
        0,
        -56.850837707519183,
        4.6148653433736447e-06,
        4.2799671401955591e-06,
        0,
        153.26649475097656,
        431.4112548828125,
        -274.62637329101562,
        1
      ],
      "name": "Sign"
    },
    {
      "mesh": 7,
      "name": "Sign_Cafe_0"
    },
    {
      "children": [
        18
      ],
      "matrix": [
        100,
        0,
        0,
        0,
        0,
        -1.6292067939183141e-05,
        -99.999999999998678,
        0,
        0,
        99.999999999998678,
        -1.6292067939183141e-05,
        0,
        0,
        0,
        0,
        1
      ],
      "name": "Cloth thing"
    },
    {
      "mesh": 8,
      "name": "Cloth thing_Cafe_0"
    }
  ],
  "samplers": [
    {
      "magFilter": 9729,
      "minFilter": 9987,
      "wrapS": 10497,
      "wrapT": 10497
    }
  ],
  "scene": 0,
  "scenes": [
    {
      "name": "OSG_Scene",
      "nodes": [
        0
      ]
    }
  ],
  "textures": [
    {
      "sampler": 0,
      "source": 0
    }
  ]
}

