{
  "accessors": [
    {
      "bufferView": 2,
      "componentType": 5126,
      "count": 2032,
      "max": [
        0.49655342102050781,
        2.5178432464599609,
        2.1609377861022949
      ],
      "min": [
        -7.8490266799926758,
        -2.8479504585266113,
        -0.19969010353088379
      ],
      "type": "VEC3"
    },
    {
      "bufferView": 2,
      "byteOffset": 24384,
      "componentType": 5126,
      "count": 2032,
      "max": [
        0.94355815649032593,
        0.97130417823791504,
        0.99987518787384033
      ],
      "min": [
        -0.99973738193511963,
        -0.99996852874755859,
        -0.99990546703338623
      ],
      "type": "VEC3"
    },
    {
      "bufferView": 1,
      "componentType": 5126,
      "count": 2032,
      "max": [
        0.87500005960464478,
        1
      ],
      "min": [
        0.13099299371242523,
        1.0097679478349164e-05
      ],
      "type": "VEC2"
    },
    {
      "bufferView": 0,
      "componentType": 5125,
      "count": 9102,
      "max": [
        2031
      ],
      "min": [
        0
      ],
      "type": "SCALAR"
    },
    {
      "bufferView": 2,
      "byteOffset": 48768,
      "componentType": 5126,
      "count": 316,
      "max": [
        2.226658821105957,
        0.093836501240730286,
        0.014896639622747898
      ],
      "min": [
        -1.0620945692062378,
        -0.069467455148696899,
        -3.1845724582672119
      ],
      "type": "VEC3"
    },
    {
      "bufferView": 2,
      "byteOffset": 52560,
      "componentType": 5126,
      "count": 316,
      "max": [
        0.97369241714477539,
        0.99645143747329712,
        0.99077343940734863
      ],
      "min": [
        -0.97380179166793823,
        -0.99649274349212646,
        -0.99119949340820312
      ],
      "type": "VEC3"
    },
    {
      "bufferView": 1,
      "byteOffset": 16256,
      "componentType": 5126,
      "count": 316,
      "max": [
        1,
        1
      ],
      "min": [
        0,
        0
      ],
      "type": "VEC2"
    },
    {
      "bufferView": 0,
      "byteOffset": 36408,
      "componentType": 5125,
      "count": 1668,
      "max": [
        315
      ],
      "min": [
        0
      ],
      "type": "SCALAR"
    },
    {
      "bufferView": 2,
      "byteOffset": 56352,
      "componentType": 5126,
      "count": 316,
      "max": [
        2.226658821105957,
        0.093836501240730286,
        0.014896639622747898
      ],
      "min": [
        -1.0620945692062378,
        -0.069467455148696899,
        -3.1845724582672119
      ],
      "type": "VEC3"
    },
    {
      "bufferView": 2,
      "byteOffset": 60144,
      "componentType": 5126,
      "count": 316,
      "max": [
        0.97369241714477539,
        0.99645143747329712,
        0.99077343940734863
      ],
      "min": [
        -0.97380179166793823,
        -0.99649274349212646,
        -0.99119949340820312
      ],
      "type": "VEC3"
    },
    {
      "bufferView": 1,
      "byteOffset": 18784,
      "componentType": 5126,
      "count": 316,
      "max": [
        1,
        1
      ],
      "min": [
        0,
        0
      ],
      "type": "VEC2"
    },
    {
      "bufferView": 0,
      "byteOffset": 43080,
      "componentType": 5125,
      "count": 1668,
      "max": [
        315
      ],
      "min": [
        0
      ],
      "type": "SCALAR"
    },
    {
      "bufferView": 2,
      "byteOffset": 63936,
      "componentType": 5126,
      "count": 135,
      "max": [
        1.3667812347412109,
        0.28339403867721558,
        1.7745817899703979
      ],
      "min": [
        -1.4469943046569824,
        -1.0944721698760986,
        1.0367550849914551
      ],
      "type": "VEC3"
    },
    {
      "bufferView": 2,
      "byteOffset": 65556,
      "componentType": 5126,
      "count": 135,
      "max": [
        0.86894518136978149,
        1,
        0.98139965534210205
      ],
      "min": [
        -0.99971878528594971,
        -1,
        -0.98678648471832275
      ],
      "type": "VEC3"
    },
    {
      "bufferView": 1,
      "byteOffset": 21312,
      "componentType": 5126,
      "count": 135,
      "max": [
        0.75607430934906006,
        0.88107430934906006
      ],
      "min": [
        0,
        0
      ],
      "type": "VEC2"
    },
    {
      "bufferView": 0,
      "byteOffset": 49752,
      "componentType": 5125,
      "count": 264,
      "max": [
        134
      ],
      "min": [
        0
      ],
      "type": "SCALAR"
    },
    {
      "bufferView": 2,
      "byteOffset": 67176,
      "componentType": 5126,
      "count": 338,
      "max": [
        1.4922409057617188,
        0.78079205751419067,
        -1.2969274520874023
      ],
      "min": [
        -0.44388645887374878,
        -0.069412060081958771,
        -3.1845724582672119
      ],
      "type": "VEC3"
    },
    {
      "bufferView": 2,
      "byteOffset": 71232,
      "componentType": 5126,
      "count": 338,
      "max": [
        0.95494371652603149,
        0.99295836687088013,
        0.99077343940734863
      ],
      "min": [
        -0.95498508214950562,
        -0.99649274349212646,
        -0.99119949340820312
      ],
      "type": "VEC3"
    },
    {
      "bufferView": 1,
      "byteOffset": 22392,
      "componentType": 5126,
      "count": 338,
      "max": [
        0.79166668653488159,
        1
      ],
      "min": [
        0.2916666567325592,
        0
      ],
      "type": "VEC2"
    },
    {
      "bufferView": 0,
      "byteOffset": 50808,
      "componentType": 5125,
      "count": 1728,
      "max": [
        337
      ],
      "min": [
        0
      ],
      "type": "SCALAR"
    },
    {
      "bufferView": 2,
      "byteOffset": 75288,
      "componentType": 5126,
      "count": 384,
      "max": [
        1.0000007152557373,
        0.34578132629394531,
        0.020625393837690353
      ],
      "min": [
        -0.9999992847442627,
        -2.2732017040252686,
        -0.020625274628400803
      ],
      "type": "VEC3"
    },
    {
      "bufferView": 2,
      "byteOffset": 79896,
      "componentType": 5126,
      "count": 384,
      "max": [
        1,
        1,
        1
      ],
      "min": [
        -1,
        -1,
        -1
      ],
      "type": "VEC3"
    },
    {
      "bufferView": 1,
      "byteOffset": 25096,
      "componentType": 5126,
      "count": 384,
      "max": [
        0,
        0
      ],
      "min": [
        0,
        0
      ],
      "type": "VEC2"
    },
    {
      "bufferView": 0,
      "byteOffset": 57720,
      "componentType": 5125,
      "count": 2010,
      "max": [
        383
      ],
      "min": [
        0
      ],
      "type": "SCALAR"
    },
    {
      "bufferView": 2,
      "byteOffset": 84504,
      "componentType": 5126,
      "count": 32,
      "max": [
        0.92501270771026611,
        0.92501270771026611,
        0.079776391386985779
      ],
      "min": [
        -0.92501270771026611,
        -0.92501270771026611,
        0.079776391386985779
      ],
      "type": "VEC3"
    },
    {
      "bufferView": 2,
      "byteOffset": 84888,
      "componentType": 5126,
      "count": 32,
      "max": [
        -9.5891854456908732e-09,
        0,
        1
      ],
      "min": [
        -9.5891854456908732e-09,
        0,
        1
      ],
      "type": "VEC3"
    },
    {
      "bufferView": 1,
      "byteOffset": 28168,
      "componentType": 5126,
      "count": 32,
      "max": [
        0,
        0
      ],
      "min": [
        0,
        0
      ],
      "type": "VEC2"
    },
    {
      "bufferView": 0,
      "byteOffset": 65760,
      "componentType": 5125,
      "count": 90,
      "max": [
        31
      ],
      "min": [
        0
      ],
      "type": "SCALAR"
    },
    {
      "bufferView": 2,
      "byteOffset": 85272,
      "componentType": 5126,
      "count": 575,
      "max": [
        -2.7875101566314697,
        1.1569679975509644,
        -0.10047876834869385
      ],
      "min": [
        -7.7803196907043457,
        -2.8902640342712402,
        -1.3355454206466675
      ],
      "type": "VEC3"
    },
    {
      "bufferView": 2,
      "byteOffset": 92172,
      "componentType": 5126,
      "count": 575,
      "max": [
        0.99801027774810791,
        0.99909341335296631,
        0.70710986852645874
      ],
      "min": [
        -0.99801027774810791,
        -0.99909341335296631,
        -0.99936020374298096
      ],
      "type": "VEC3"
    },
    {
      "bufferView": 1,
      "byteOffset": 28424,
      "componentType": 5126,
      "count": 575,
      "max": [
        0.875,
        1
      ],
      "min": [
        0.13874742388725281,
        2.3162163415690884e-05
      ],
      "type": "VEC2"
    },
    {
      "bufferView": 0,
      "byteOffset": 66120,
      "componentType": 5125,
      "count": 2292,
      "max": [
        574
      ],
      "min": [
        0
      ],
      "type": "SCALAR"
    },
    {
      "bufferView": 2,
      "byteOffset": 99072,
      "componentType": 5126,
      "count": 169,
      "max": [
        0.47446620464324951,
        2.1259684562683105,
        1.8695341348648071
      ],
      "min": [
        -1.4331190586090088,
        0.22224116325378418,
        1.3038430213928223
      ],
      "type": "VEC3"
    },
    {
      "bufferView": 2,
      "byteOffset": 101100,
      "componentType": 5126,
      "count": 169,
      "max": [
        0.98604720830917358,
        0.99088048934936523,
        0.99270808696746826
      ],
      "min": [
        -0.98730212450027466,
        -0.9916115403175354,
        -0.99637007713317871
      ],
      "type": "VEC3"
    },
    {
      "bufferView": 1,
      "byteOffset": 33024,
      "componentType": 5126,
      "count": 169,
      "max": [
        1,
        1
      ],
      "min": [
        0,
        0
      ],
      "type": "VEC2"
    },
    {
      "bufferView": 0,
      "byteOffset": 75288,
      "componentType": 5125,
      "count": 864,
      "max": [
        168
      ],
      "min": [
        0
      ],
      "type": "SCALAR"
    }
  ],
  "asset": {
    "extras": {
      "author": "AwesomeAmbz (https://sketchfab.com/AwesomeAmbz)",
      "license": "CC-BY-4.0 (http://creativecommons.org/licenses/by/4.0/)",
      "source": "https://sketchfab.com/3d-models/red-backpack-95e44b7b6a694ce48e4e1e2eb561d942",
      "title": "Red Backpack"
    },
    "generator": "Sketchfab-9.31.1",
    "version": "2.0"
  },
  "bufferViews": [
    {
      "buffer": 0,
      "byteLength": 78744,
      "byteOffset": 0,
      "name": "floatBufferViews",
      "target": 34963
    },
    {
      "buffer": 0,
      "byteLength": 34376,
      "byteOffset": 78744,
      "byteStride": 8,
      "name": "floatBufferViews",
      "target": 34962
    },
    {
      "buffer": 0,
      "byteLength": 103128,
      "byteOffset": 113120,
      "byteStride": 12,
      "name": "floatBufferViews",
      "target": 34962
    }
  ],
  "buffers": [
    {
      "byteLength": 216248,
      "uri": "scene.bin"
    }
  ],
  "materials": [
    {
      "doubleSided": true,
      "name": "BezierCurve.002__0",
      "pbrMetallicRoughness": {
        "baseColorFactor": [
          1,
          1,
          1,
          1
        ],
        "metallicFactor": 0,
        "roughnessFactor": 0.59999999999999998
      }
    },
    {
      "doubleSided": true,
      "emissiveFactor": [
        0,
        0,
        0
      ],
      "name": "Material.006",
      "pbrMetallicRoughness": {
        "baseColorFactor": [
          0.28829700000000003,
          0.00586186,
          0,
          1
        ],
        "metallicFactor": 0,
        "roughnessFactor": 0.98535725542985952
      }
    },
    {
      "doubleSided": true,
      "emissiveFactor": [
        0,
        0,
        0
      ],
      "name": "Material.010",
      "pbrMetallicRoughness": {
        "baseColorFactor": [
          0.89410400000000001,
          1,
          0.90041800000000005,
          1
        ],
        "metallicFactor": 0,
        "roughnessFactor": 0.78303506428169589
      }
    },
    {
      "doubleSided": true,
      "emissiveFactor": [
        0,
        0,
        0
      ],
      "name": "Material.013",
      "pbrMetallicRoughness": {
        "baseColorFactor": [
          0.38437500000000002,
          0.36462299999999997,
          0.308979,
          1
        ],
        "metallicFactor": 0,
        "roughnessFactor": 0.9184271716980853
      }
    },
    {
      "doubleSided": true,
      "emissiveFactor": [
        0,
        0,
        0
      ],
      "name": "Material.014",
      "pbrMetallicRoughness": {
        "baseColorFactor": [
          0.57047099999999995,
          0.00760175,
          0,
          1
        ],
        "metallicFactor": 0,
        "roughnessFactor": 0.97166479117023807
      }
    },
    {
      "doubleSided": true,
      "emissiveFactor": [
        0,
        0,
        0
      ],
      "name": "Material.004",
      "pbrMetallicRoughness": {
        "baseColorFactor": [
          0,
          0,
          0,
          1
        ],
        "metallicFactor": 0,
        "roughnessFactor": 1
      }
    },
    {
      "doubleSided": true,
      "emissiveFactor": [
        0,
        0,
        0
      ],
      "name": "Material",
      "pbrMetallicRoughness": {
        "baseColorFactor": [
          0.96993799999999997,
          1,
          1,
          1
        ],
        "metallicFactor": 0,
        "roughnessFactor": 0.77782231381199285
      }
    }
  ],
  "meshes": [
    {
      "name": "Circle.004_Material.006_0",
      "primitives": [
        {
          "attributes": {
            "NORMAL": 1,
            "POSITION": 0,
            "TEXCOORD_0": 2
          },
          "indices": 3,
          "material": 1,
          "mode": 4
        }
      ]
    },
    {
      "name": "BezierCurve.002__0",
      "primitives": [
        {
          "attributes": {
            "NORMAL": 5,
            "POSITION": 4,
            "TEXCOORD_0": 6
          },
          "indices": 7,
          "material": 0,
          "mode": 4
        }
      ]
    },
    {
      "name": "BezierCurve.003_Material.010_0",
      "primitives": [
        {
          "attributes": {
            "NORMAL": 9,
            "POSITION": 8,
            "TEXCOORD_0": 10
          },
          "indices": 11,
          "material": 2,
          "mode": 4
        }
      ]
    },
    {
      "name": "BezierCurve.042_Material.013_0",
      "primitives": [
        {
          "attributes": {
            "NORMAL": 13,
            "POSITION": 12,
            "TEXCOORD_0": 14
          },
          "indices": 15,
          "material": 3,
          "mode": 4
        }
      ]
    },
    {
      "name": "BezierCurve.043_Material.014_0",
      "primitives": [
        {
          "attributes": {
            "NORMAL": 17,
            "POSITION": 16,
            "TEXCOORD_0": 18
          },
          "indices": 19,
          "material": 4,
          "mode": 4
        }
      ]
    },
    {
      "name": "Circle.001_Material.004_0",
      "primitives": [
        {
          "attributes": {
            "NORMAL": 21,
            "POSITION": 20,
            "TEXCOORD_0": 22
          },
          "indices": 23,
          "material": 5,
          "mode": 4
        }
      ]
    },
    {
      "name": "Circle.002_Material_0",
      "primitives": [
        {
          "attributes": {
            "NORMAL": 25,
            "POSITION": 24,
            "TEXCOORD_0": 26
          },
          "indices": 27,
          "material": 6,
          "mode": 4
        }
      ]
    },
    {
      "name": "Circle.003_Material.006_0",
      "primitives": [
        {
          "attributes": {
            "NORMAL": 29,
            "POSITION": 28,
            "TEXCOORD_0": 30
          },
          "indices": 31,
          "material": 1,
          "mode": 4
        }
      ]
    },
    {
      "name": "Circle.005_Material.006_0",
      "primitives": [
        {
          "attributes": {
            "NORMAL": 33,
            "POSITION": 32,
            "TEXCOORD_0": 34
          },
          "indices": 35,
          "material": 1,
          "mode": 4
        }
      ]
    }
  ],
  "nodes": [
    {
      "children": [
        1
      ],
      "name": "RootNode (gltf orientation matrix)",
      "rotation": [
        -0.70710678118654746,
        -0,
        -0,
        0.70710678118654757
      ]
    },
    {
      "children": [
        2
      ],
      "name": "RootNode (model correction matrix)"
    },
    {
      "children": [
        3
      ],
      "matrix": [
        1,
        0,
        0,
        0,
        0,
        0,
        1,
        0,
        0,
        -1,
        0,
        0,
        0,
        0,
        0,
        1
      ],
      "name": "a0b4cdddd592493a86aa61368446a251.fbx"
    },
    {
      "children": [
        4,
        6,
        8,
        10,
        12,
        14,
        16,
        18,
        20
      ],
      "name": "RootNode"
    },
    {
      "children": [
        5
      ],
      "matrix": [
        -9.4459698499837179e-07,
        21.609859222610751,
        -13.300985872652634,
        0,
        4.9998923006716122e-06,
        18.718905449505229,
        30.412250297691056,
        0,
        28.705072402953803,
        -1.1966305782545667e-06,
        -3.9826929873184116e-06,
        0,
        -28.14887809753418,
        157.19557189941406,
        218.87890625,
        1
      ],
      "name": "Circle.004"
    },
    {
      "mesh": 0,
      "name": "Circle.004_Material.006_0"
    },
    {
      "children": [
        7
      ],
      "matrix": [
        3.2907094951246121,
        -48.2918241701841,
        -0.0022376042401936261,
        0,
        0.037861680417238718,
        -0.0024524906115462597,
        108.61037545308,
        0,
        -16.823460001420631,
        -1.1463872732850997,
        0.005838788047786027,
        0,
        23.789865493774414,
        102.67700958251953,
        303.0797119140625,
        1
      ],
      "name": "BezierCurve.002"
    },
    {
      "mesh": 1,
      "name": "BezierCurve.002__0"
    },
    {
      "children": [
        9
      ],
      "matrix": [
        3.2907094951246121,
        -48.2918241701841,
        -0.0022376042401936261,
        0,
        0.037861680417238718,
        -0.0024524906115462597,
        108.61037545308,
        0,
        -16.823460001420631,
        -1.1463872732850997,
        0.005838788047786027,
        0,
        23.789865493774414,
        102.67700958251953,
        227.64175415039062,
        1
      ],
      "name": "BezierCurve.003"
    },
    {
      "mesh": 2,
      "name": "BezierCurve.003_Material.010_0"
    },
    {
      "children": [
        11
      ],
      "matrix": [
        3.2907094951246121,
        -48.2918241701841,
        -0.0022376042401936261,
        0,
        0.037861680417238718,
        -0.0024524906115462597,
        108.61037545308,
        0,
        -16.823460001420631,
        -1.1463872732850997,
        0.005838788047786027,
        0,
        23.789865493774414,
        102.67700958251953,
        306.42999267578125,
        1
      ],
      "name": "BezierCurve.042"
    },
    {
      "mesh": 3,
      "name": "BezierCurve.042_Material.013_0"
    },
    {
      "children": [
        13
      ],
      "matrix": [
        3.3118944877190484,
        -48.602718200463286,
        -0.0022505093161297941,
        0,
        0.038105205191979859,
        -0.002464921299623995,
        109.30960941935997,
        0,
        -16.931767485777478,
        -1.1537675814147106,
        0.0058763774880765552,
        0,
        23.774986267089844,
        102.67700958251953,
        227.64175415039062,
        1
      ],
      "name": "BezierCurve.043"
    },
    {
      "mesh": 4,
      "name": "BezierCurve.043_Material.014_0"
    },
    {
      "children": [
        15
      ],
      "matrix": [
        2.9294400215148926,
        0,
        0,
        0,
        0,
        9.2329827381689036,
        -3.5939935490235926,
        0,
        0,
        8.5778719134049108,
        22.036584714574154,
        0,
        0.16516803205013275,
        36.022918701171875,
        337.78897094726562,
        1
      ],
      "name": "Circle.001"
    },
    {
      "mesh": 5,
      "name": "Circle.001_Material.004_0"
    },
    {
      "children": [
        17
      ],
      "matrix": [
        2.9294400215148926,
        0,
        0,
        0,
        0,
        9.2329798577942164,
        -3.5939930615349658,
        0,
        0,
        2.9277032987439235,
        7.5212792913282431,
        0,
        0.16516803205013275,
        24.092840194702148,
        341.91622924804688,
        1
      ],
      "name": "Circle.002"
    },
    {
      "mesh": 6,
      "name": "Circle.002_Material_0"
    },
    {
      "children": [
        19
      ],
      "matrix": [
        -9.4459698499837179e-07,
        21.609859222610751,
        -13.300985872652634,
        0,
        4.9998923006716122e-06,
        18.718905449505229,
        30.412250297691056,
        0,
        28.705072402953803,
        -1.1966305782545667e-06,
        -3.9826929873184116e-06,
        0,
        -28.14887809753418,
        157.19557189941406,
        218.87890625,
        1
      ],
      "name": "Circle.003"
    },
    {
      "mesh": 7,
      "name": "Circle.003_Material.006_0"
    },
    {
      "children": [
        21
      ],
      "matrix": [
        -9.4459698499837179e-07,
        21.609859222610751,
        -13.300985872652634,
        0,
        4.9998923006716122e-06,
        18.718905449505229,
        30.412250297691056,
        0,
        28.705072402953803,
        -1.1966305782545667e-06,
        -3.9826929873184116e-06,
        0,
        -28.14887809753418,
        157.19557189941406,
        218.87890625,
        1
      ],
      "name": "Circle.005"
    },
    {
      "mesh": 8,
      "name": "Circle.005_Material.006_0"
    }
  ],
  "scene": 0,
  "scenes": [
    {
      "name": "OSG_Scene",
      "nodes": [
        0
      ]
    }
  ]
}

