{
  "accessors": [
    {
      "bufferView": 2,
      "componentType": 5126,
      "count": 1000,
      "max": [
        2.2929019927978516,
        3.6379499435424805,
        4.2401628494262695
      ],
      "min": [
        -3.0399379730224609,
        -3.4899859428405762,
        1.0078200101852417
      ],
      "type": "VEC3"
    },
    {
      "bufferView": 2,
      "byteOffset": 12000,
      "componentType": 5126,
      "count": 1000,
      "max": [
        0.9917837381362915,
        0.99027764797210693,
        0.99750286340713501
      ],
      "min": [
        -0.99023950099945068,
        -0.98951512575149536,
        -0.99934887886047363
      ],
      "type": "VEC3"
    },
    {
      "bufferView": 1,
      "componentType": 5126,
      "count": 1000,
      "max": [
        0.94124698638916016,
        0.88493800163269043
      ],
      "min": [
        0.06527700275182724,
        0.11975199729204178
      ],
      "type": "VEC2"
    },
    {
      "bufferView": 0,
      "componentType": 5125,
      "count": 5760,
      "max": [
        999
      ],
      "min": [
        0
      ],
      "type": "SCALAR"
    },
    {
      "bufferView": 2,
      "byteOffset": 24000,
      "componentType": 5126,
      "count": 2890,
      "max": [
        0.93056797981262207,
        1.1398069858551025,
        3.6332149505615234
      ],
      "min": [
        -2.1794259548187256,
        -2.1896989345550537,
        1.8768730163574219
      ],
      "type": "VEC3"
    },
    {
      "bufferView": 2,
      "byteOffset": 58680,
      "componentType": 5126,
      "count": 2890,
      "max": [
        0.99924010038375854,
        0.99840164184570312,
        0.99864423274993896
      ],
      "min": [
        -0.99924010038375854,
        -0.99840164184570312,
        -0.99864423274993896
      ],
      "type": "VEC3"
    },
    {
      "bufferView": 1,
      "byteOffset": 8000,
      "componentType": 5126,
      "count": 2890,
      "max": [
        1,
        1
      ],
      "min": [
        0,
        0
      ],
      "type": "VEC2"
    },
    {
      "bufferView": 0,
      "byteOffset": 23040,
      "componentType": 5125,
      "count": 15360,
      "max": [
        2889
      ],
      "min": [
        0
      ],
      "type": "SCALAR"
    },
    {
      "bufferView": 2,
      "byteOffset": 93360,
      "componentType": 5126,
      "count": 2614,
      "max": [
        2.6722280979156494,
        3.679253101348877,
        4.4201297760009766
      ],
      "min": [
        -2.8700931072235107,
        -2.855233907699585,
        1.0567610263824463
      ],
      "type": "VEC3"
    },
    {
      "bufferView": 2,
      "byteOffset": 124728,
      "componentType": 5126,
      "count": 2614,
      "max": [
        0.99966990947723389,
        0.99828851222991943,
        0.98357385396957397
      ],
      "min": [
        -0.99972933530807495,
        -0.99766987562179565,
        -0.99880647659301758
      ],
      "type": "VEC3"
    },
    {
      "bufferView": 1,
      "byteOffset": 31120,
      "componentType": 5126,
      "count": 2614,
      "max": [
        1,
        1
      ],
      "min": [
        0,
        0
      ],
      "type": "VEC2"
    },
    {
      "bufferView": 0,
      "byteOffset": 84480,
      "componentType": 5125,
      "count": 15384,
      "max": [
        2613
      ],
      "min": [
        0
      ],
      "type": "SCALAR"
    },
    {
      "bufferView": 2,
      "byteOffset": 156096,
      "componentType": 5126,
      "count": 4745,
      "max": [
        2.7380239963531494,
        3.9078700542449951,
        4.8783679008483887
      ],
      "min": [
        -3.229525089263916,
        -3.6353240013122559,
        0.29752099514007568
      ],
      "type": "VEC3"
    },
    {
      "bufferView": 2,
      "byteOffset": 213036,
      "componentType": 5126,
      "count": 4745,
      "max": [
        0.99961549043655396,
        0.99808454513549805,
        0.9999728798866272
      ],
      "min": [
        -0.99966245889663696,
        -0.99987125396728516,
        -0.99989187717437744
      ],
      "type": "VEC3"
    },
    {
      "bufferView": 1,
      "byteOffset": 52032,
      "componentType": 5126,
      "count": 4745,
      "max": [
        1,
        1
      ],
      "min": [
        0,
        0
      ],
      "type": "VEC2"
    },
    {
      "bufferView": 0,
      "byteOffset": 146016,
      "componentType": 5125,
      "count": 25632,
      "max": [
        4744
      ],
      "min": [
        0
      ],
      "type": "SCALAR"
    }
  ],
  "asset": {
    "extras": {
      "author": "Ami-Via (https://sketchfab.com/Ami-Via)",
      "license": "CC-BY-4.0 (http://creativecommons.org/licenses/by/4.0/)",
      "source": "https://sketchfab.com/3d-models/boot-a10d3269ea37452fba09d91e97b36367",
      "title": "Boot"
    },
    "generator": "Sketchfab-9.35.0",
    "version": "2.0"
  },
  "bufferViews": [
    {
      "buffer": 0,
      "byteLength": 248544,
      "byteOffset": 0,
      "name": "floatBufferViews",
      "target": 34963
    },
    {
      "buffer": 0,
      "byteLength": 89992,
      "byteOffset": 248544,
      "byteStride": 8,
      "name": "floatBufferViews",
      "target": 34962
    },
    {
      "buffer": 0,
      "byteLength": 269976,
      "byteOffset": 338536,
      "byteStride": 12,
      "name": "floatBufferViews",
      "target": 34962
    }
  ],
  "buffers": [
    {
      "byteLength": 608512,
      "uri": "scene.bin"
    }
  ],
  "materials": [
    {
      "doubleSided": true,
      "name": "blinn1SG",
      "pbrMetallicRoughness": {
        "baseColorFactor": [
          0.54066665883251919,
          0.78597127135718614,
          0.82829211006671699,
          1
        ],
        "metallicFactor": 0.53676528707537596,
        "roughnessFactor": 0.59999999999999998
      }
    },
    {
      "doubleSided": true,
      "name": "boot4blinn1SG",
      "pbrMetallicRoughness": {
        "baseColorFactor": [
          0.53901910256683916,
          0.72945052077417638,
          0.91178897213656018,
          1
        ],
        "metallicFactor": 0,
        "roughnessFactor": 0.59999999999999998
      }
    },
    {
      "doubleSided": true,
      "name": "boot4lambert2SG",
      "pbrMetallicRoughness": {
        "baseColorFactor": [
          0.90228009864276937,
          0.32912284230251959,
          0.44947036549874392,
          1
        ],
        "metallicFactor": 0,
        "roughnessFactor": 0.59999999999999998
      }
    },
    {
      "doubleSided": true,
      "name": "initialShadingGroup",
      "pbrMetallicRoughness": {
        "baseColorFactor": [
          0.59863701239495126,
          0.67501793440268609,
          0.86482458203182677,
          1
        ],
        "metallicFactor": 0,
        "roughnessFactor": 0.59999999999999998
      }
    }
  ],
  "meshes": [
    {
      "primitives": [
        {
          "attributes": {
            "NORMAL": 1,
            "POSITION": 0,
            "TEXCOORD_0": 2
          },
          "indices": 3,
          "material": 1,
          "mode": 4
        }
      ]
    },
    {
      "primitives": [
        {
          "attributes": {
            "NORMAL": 5,
            "POSITION": 4,
            "TEXCOORD_0": 6
          },
          "indices": 7,
          "material": 0,
          "mode": 4
        }
      ]
    },
    {
      "primitives": [
        {
          "attributes": {
            "NORMAL": 9,
            "POSITION": 8,
            "TEXCOORD_0": 10
          },
          "indices": 11,
          "material": 2,
          "mode": 4
        }
      ]
    },
    {
      "primitives": [
        {
          "attributes": {
            "NORMAL": 13,
            "POSITION": 12,
            "TEXCOORD_0": 14
          },
          "indices": 15,
          "material": 3,
          "mode": 4
        }
      ]
    }
  ],
  "nodes": [
    {
      "children": [
        1
      ],
      "name": "RootNode (gltf orientation matrix)",
      "rotation": [
        -0.70710678118654746,
        -0,
        -0,
        0.70710678118654757
      ]
    },
    {
      "children": [
        2
      ],
      "name": "RootNode (model correction matrix)"
    },
    {
      "children": [
        3,
        4,
        5,
        6
      ],
      "name": "Boot.obj.cleaner.materialmerger.gles"
    },
    {
      "mesh": 0,
      "name": ""
    },
    {
      "mesh": 1,
      "name": ""
    },
    {
      "mesh": 2,
      "name": ""
    },
    {
      "mesh": 3,
      "name": ""
    }
  ],
  "scene": 0,
  "scenes": [
    {
      "name": "OSG_Scene",
      "nodes": [
        0
      ]
    }
  ]
}

